<svg width="32" height="31" viewBox="0 0 32 31" fill="none" xmlns="http://www.w3.org/2000/svg">
<path d="M28.2211 0H3.52764C1.58744 0 0 1.55 0 3.44444V27.5556C0 29.4517 1.58744 31 3.52764 31H15.8744V18.9444H12.3468V14.6819H15.8744V11.1514C15.8744 7.4245 18.0121 4.80672 22.5169 4.80672L25.6971 4.81017V9.29656H23.5858C21.8326 9.29656 21.1659 10.5813 21.1659 11.7731V14.6837H25.6954L24.6935 18.9444H21.1659V31H28.2211C30.1614 31 31.7488 29.4517 31.7488 27.5556V3.44444C31.7488 1.55 30.1614 0 28.2211 0Z" fill="#D6D6D6"/>
</svg>
