<svg width="32" height="31" viewBox="0 0 32 31" fill="none" xmlns="http://www.w3.org/2000/svg">
<path d="M15.8833 10.3311C12.9684 10.3311 10.5897 12.6538 10.5897 15.5C10.5897 18.3462 12.9684 20.6689 15.8833 20.6689C18.7982 20.6689 21.1769 18.3462 21.1769 15.5C21.1769 12.6538 18.7982 10.3311 15.8833 10.3311ZM31.7602 15.5C31.7602 13.3596 31.7801 11.2385 31.657 9.10193C31.5338 6.62025 30.9541 4.41776 29.0955 2.60304C27.233 0.784432 24.9814 0.222178 22.4398 0.101971C20.2477 -0.0182348 18.0754 0.00115338 15.8873 0.00115338C13.6952 0.00115338 11.5229 -0.0182348 9.33479 0.101971C6.79322 0.222178 4.53757 0.78831 2.67905 2.60304C0.816549 4.42164 0.240724 6.62025 0.117616 9.10193C-0.00549129 11.2424 0.0143648 13.3634 0.0143648 15.5C0.0143648 17.6366 -0.00549129 19.7615 0.117616 21.8981C0.240724 24.3797 0.82052 26.5822 2.67905 28.397C4.54154 30.2156 6.79322 30.7778 9.33479 30.898C11.5269 31.0182 13.6991 30.9988 15.8873 30.9988C18.0794 30.9988 20.2516 31.0182 22.4398 30.898C24.9814 30.7778 27.237 30.2117 29.0955 28.397C30.958 26.5784 31.5338 24.3797 31.657 21.8981C31.784 19.7615 31.7602 17.6404 31.7602 15.5ZM15.8833 23.453C11.376 23.453 7.73837 19.9011 7.73837 15.5C7.73837 11.0989 11.376 7.547 15.8833 7.547C20.3906 7.547 24.0283 11.0989 24.0283 15.5C24.0283 19.9011 20.3906 23.453 15.8833 23.453ZM24.3618 9.07866C23.3095 9.07866 22.4596 8.24885 22.4596 7.22128C22.4596 6.19371 23.3095 5.3639 24.3618 5.3639C25.4142 5.3639 26.2641 6.19371 26.2641 7.22128C26.2644 7.46528 26.2154 7.70695 26.1199 7.93243C26.0244 8.15792 25.8843 8.3628 25.7076 8.53533C25.5309 8.70787 25.3211 8.84467 25.0902 8.9379C24.8592 9.03113 24.6117 9.07897 24.3618 9.07866Z" fill="#D6D6D6"/>
</svg>
