<svg width="8" height="5" viewBox="0 0 8 5" fill="none" xmlns="http://www.w3.org/2000/svg">
<path d="M3.67063 4.3029C3.70733 4.34225 3.75644 4.37443 3.81372 4.39665C3.871 4.41888 3.93474 4.4305 3.99946 4.4305C4.06417 4.4305 4.12791 4.41888 4.1852 4.39665C4.24248 4.37443 4.29158 4.34225 4.32828 4.3029L7.92857 0.463398C7.97024 0.419113 7.99468 0.367243 7.99922 0.313423C8.00377 0.259603 7.98826 0.205893 7.95436 0.158127C7.92047 0.11036 7.86949 0.0703657 7.80697 0.042488C7.74445 0.0146102 7.67278 -8.45706e-05 7.59974 3.66127e-07H0.399176C0.326308 0.000222587 0.2549 0.0151063 0.192632 0.0430509C0.130364 0.0709954 0.079592 0.110944 0.0457757 0.158599C0.0119594 0.206255 -0.00362155 0.259815 0.000708374 0.313519C0.0050383 0.367224 0.0291153 0.419041 0.0703501 0.463398L3.67063 4.3029Z" fill="white"/>
</svg>
