<svg width="27" height="27" viewBox="0 0 27 27" fill="none" xmlns="http://www.w3.org/2000/svg">
<path d="M12.4722 0.940435L7.8894 8.7036H19.1106L14.526 0.940435L16.074 0L21.2094 8.7036H25.7346C26.433 8.7036 27 9.27993 27 9.98984V10.793C27 16.1791 25.7663 21.4911 23.3964 26.3084C23.2941 26.5163 23.1368 26.6911 22.9423 26.8133C22.7477 26.9354 22.5235 27.0001 22.2948 27H4.7052C4.47636 26.9997 4.25212 26.9347 4.05756 26.8122C3.86301 26.6898 3.70583 26.5147 3.6036 26.3066C1.23373 21.4893 -4.22491e-05 16.1772 1.08509e-09 10.7912L1.0851e-09 9.98984C1.0851e-09 9.27993 0.567 8.7036 1.2654 8.7036H5.7906L10.926 0L12.4704 0.940435H12.4722Z" fill="#D6D6D6"/>
</svg>

