<svg width="33" height="31" viewBox="0 0 33 31" fill="none" xmlns="http://www.w3.org/2000/svg">
<path d="M29.2065 0H4.26103C2.38303 0 0.859375 1.48772 0.859375 3.32143V27.6786C0.859375 29.5123 2.38303 31 4.26103 31H29.2065C31.0845 31 32.6082 29.5123 32.6082 27.6786V3.32143C32.6082 1.48772 31.0845 0 29.2065 0ZM25.7411 10.9884C25.7552 11.1821 25.7552 11.3828 25.7552 11.5766C25.7552 17.5759 21.078 24.4886 12.5313 24.4886C9.89503 24.4886 7.45008 23.7413 5.39492 22.4542C5.77052 22.4958 6.13194 22.5096 6.51463 22.5096C8.69027 22.5096 10.6887 21.79 12.2833 20.5721C10.2423 20.5306 8.52728 19.2228 7.93907 17.4237C8.65484 17.5275 9.29974 17.5275 10.0368 17.3406C7.91073 16.9185 6.3162 15.0917 6.3162 12.8844V12.829C6.93275 13.1681 7.6556 13.3757 8.41389 13.4033C7.77638 12.9893 7.25377 12.4276 6.89269 11.7683C6.53161 11.1091 6.34329 10.3728 6.34455 9.62522C6.34455 8.78103 6.57132 8.00603 6.97527 7.33482C9.2643 10.0888 12.7014 11.8879 16.5566 12.0817C15.8975 9.00246 18.2574 6.50446 21.0921 6.50446C22.4315 6.50446 23.6363 7.05112 24.4867 7.93683C25.5356 7.74308 26.5419 7.3625 27.4348 6.84353C27.0876 7.89531 26.3576 8.78103 25.3938 9.34152C26.3293 9.24464 27.2364 8.98862 28.0726 8.63571C27.4419 9.54219 26.6482 10.3449 25.7411 10.9884Z" fill="#D6D6D6"/>
</svg>
