<svg width="35" height="25" viewBox="0 0 35 25" fill="none" xmlns="http://www.w3.org/2000/svg">
<path fill-rule="evenodd" clip-rule="evenodd" d="M1.34615 0C0.989132 0 0.646732 0.141827 0.394279 0.39428C0.141826 0.646732 0 0.989132 0 1.34615C0 1.70318 0.141826 2.04558 0.394279 2.29803C0.646732 2.55048 0.989132 2.69231 1.34615 2.69231H33.6538C34.0109 2.69231 34.3533 2.55048 34.6057 2.29803C34.8582 2.04558 35 1.70318 35 1.34615C35 0.989132 34.8582 0.646732 34.6057 0.39428C34.3533 0.141827 34.0109 0 33.6538 0H1.34615ZM0 12.1154C0 11.7584 0.141826 11.416 0.394279 11.1635C0.646732 10.9111 0.989132 10.7692 1.34615 10.7692H33.6538C34.0109 10.7692 34.3533 10.9111 34.6057 11.1635C34.8582 11.416 35 11.7584 35 12.1154C35 12.4724 34.8582 12.8148 34.6057 13.0673C34.3533 13.3197 34.0109 13.4615 33.6538 13.4615H1.34615C0.989132 13.4615 0.646732 13.3197 0.394279 13.0673C0.141826 12.8148 0 12.4724 0 12.1154ZM0 22.8846C0 22.5276 0.141826 22.1852 0.394279 21.9327C0.646732 21.6803 0.989132 21.5385 1.34615 21.5385H33.6538C34.0109 21.5385 34.3533 21.6803 34.6057 21.9327C34.8582 22.1852 35 22.5276 35 22.8846C35 23.2416 34.8582 23.584 34.6057 23.8365C34.3533 24.0889 34.0109 24.2308 33.6538 24.2308H1.34615C0.989132 24.2308 0.646732 24.0889 0.394279 23.8365C0.141826 23.584 0 23.2416 0 22.8846Z" fill="#E3E0ED"/>
</svg>
